#N canvas 131 1204 1289 702 12;
#X obj 130 235 samphold~;
#X obj 191 285 samphold~;
#X obj 251 337 samphold~;
#X obj 312 389 samphold~;
#X obj 372 441 samphold~;
#X obj 432 493 samphold~;
#X obj 492 545 samphold~;
#X obj 551 596 samphold~;
#X obj 611 627 samphold~;
#X obj 131 641 outlet~;
#X obj 191 260 samphold~;
#X obj 251 312 samphold~;
#X obj 312 364 samphold~;
#X obj 372 416 samphold~;
#X obj 432 468 samphold~;
#X obj 492 520 samphold~;
#X obj 551 572 samphold~;
#X obj 611 654 delwrite~ \$0-shiftregdel 1;
#X obj 474 167 delread~ \$0-shiftregdel 0;
#X obj 474 192 expr~ if(random(1 \, 999)<($v2 * 1000) \, abs($v1-1)
\, $v1);
#X obj 384 148 abs~;
#X obj 384 123 -~ 1;
#X obj 399 84 fexpr~ $x1[-1];
#X obj 191 641 outlet~;
#X obj 251 641 outlet~;
#X obj 311 641 outlet~;
#X obj 371 641 outlet~;
#X obj 431 641 outlet~;
#X obj 491 641 outlet~;
#X obj 551 641 outlet~;
#X obj 252 11 inlet~ gate;
#X obj 848 10 inlet~ probability;
#X connect 0 0 10 0;
#X connect 0 0 9 0;
#X connect 1 0 11 0;
#X connect 1 0 23 0;
#X connect 2 0 12 0;
#X connect 2 0 24 0;
#X connect 3 0 13 0;
#X connect 3 0 25 0;
#X connect 4 0 14 0;
#X connect 4 0 26 0;
#X connect 5 0 15 0;
#X connect 5 0 27 0;
#X connect 6 0 16 0;
#X connect 6 0 28 0;
#X connect 7 0 8 0;
#X connect 7 0 29 0;
#X connect 8 0 17 0;
#X connect 10 0 1 0;
#X connect 11 0 2 0;
#X connect 12 0 3 0;
#X connect 13 0 4 0;
#X connect 14 0 5 0;
#X connect 15 0 6 0;
#X connect 16 0 7 0;
#X connect 18 0 19 0;
#X connect 19 0 0 0;
#X connect 20 0 0 1;
#X connect 20 0 7 1;
#X connect 20 0 6 1;
#X connect 20 0 5 1;
#X connect 20 0 4 1;
#X connect 20 0 3 1;
#X connect 20 0 2 1;
#X connect 20 0 1 1;
#X connect 21 0 20 0;
#X connect 30 0 8 1;
#X connect 30 0 10 1;
#X connect 30 0 16 1;
#X connect 30 0 15 1;
#X connect 30 0 14 1;
#X connect 30 0 13 1;
#X connect 30 0 12 1;
#X connect 30 0 11 1;
#X connect 30 0 21 0;
#X connect 30 0 22 0;
#X connect 31 0 19 1;
